<svg width="509" height="197" viewBox="0 0 509 197" fill="none" xmlns="http://www.w3.org/2000/svg">
<mask id="mask0_7002_2462" style="mask-type:luminance" maskUnits="userSpaceOnUse" x="0" y="0" width="509" height="197">
<path d="M508.561 0H0V197H508.561V0Z" fill="white"/>
</mask>
<g mask="url(#mask0_7002_2462)">
<path d="M52.029 79.5041C55.3329 79.5041 58.011 76.8179 58.011 73.5044C58.011 70.191 55.3329 67.5049 52.029 67.5049C48.7253 67.5049 46.0471 70.191 46.0471 73.5044C46.0471 76.8179 48.7253 79.5041 52.029 79.5041Z" fill="#00B084"/>
<path d="M91.9906 130.274L60.7963 152.072C59.4556 153.012 57.6085 152.044 57.6085 150.398V92.4249C57.6085 89.331 55.1145 86.8296 52.0297 86.8296C48.9449 86.8296 46.451 89.331 46.451 92.4249V126.41V165.03C46.451 169.553 51.5234 172.205 55.2176 169.619L151.67 102.214C154.848 99.9948 154.857 95.2835 151.688 93.0454L151.679 93.0361C149.757 91.682 147.197 91.6725 145.275 93.0172L91.9906 130.274Z" fill="#00B084"/>
<path d="M119.472 88.7196L79.0798 116.949C77.7391 117.89 75.892 116.921 75.892 115.275V100.897C75.892 99.308 77.1765 98.0198 78.761 98.0198H80.8049C83.5991 98.0198 85.8588 95.7535 85.8588 92.9513V92.4247C85.8588 89.3308 83.3553 86.8202 80.2705 86.8202H69.6286C66.9189 86.8202 64.7155 89.0299 64.7155 91.7476V136.875C64.7155 138.465 66.4971 139.396 67.791 138.484L82.1083 128.478L136.499 90.4594C139.312 88.494 139.321 84.3093 136.518 82.3252L103.664 59.1358L54.1861 24.2109C50.9328 21.9164 46.451 24.2484 46.451 28.2356V29.8812C46.451 31.4894 47.2291 32.9844 48.5324 33.9061L119.481 83.9803C121.113 85.1556 121.103 87.5818 119.472 88.7196Z" fill="#00B084"/>
<path d="M195.515 90.6086C193.337 90.6086 191.157 90.4354 188.979 90.0887C186.801 89.7916 184.746 89.3213 182.815 88.6776C180.884 87.9845 179.151 87.1426 177.616 86.1524C176.724 85.5583 176.106 84.8403 175.759 83.9986C175.412 83.157 175.289 82.34 175.388 81.5477C175.536 80.7061 175.858 79.9881 176.353 79.3939C176.898 78.7502 177.566 78.3541 178.358 78.2056C179.151 78.0571 180.017 78.2799 180.958 78.874C183.136 80.1613 185.439 81.1021 187.865 81.6963C190.292 82.2904 192.841 82.5875 195.515 82.5875C199.427 82.5875 202.273 81.9438 204.056 80.6565C205.838 79.3196 206.729 77.6114 206.729 75.5319C206.729 73.799 206.085 72.4373 204.798 71.4471C203.56 70.4569 201.406 69.6399 198.337 68.9962L190.167 67.288C185.464 66.2978 181.948 64.639 179.621 62.3119C177.343 59.9353 176.205 56.816 176.205 52.9539C176.205 50.5277 176.7 48.3245 177.69 46.344C178.68 44.3634 180.067 42.6552 181.849 41.2194C183.681 39.7835 185.835 38.6942 188.31 37.9515C190.836 37.1592 193.608 36.7632 196.629 36.7632C199.599 36.7632 202.422 37.1345 205.095 37.8772C207.769 38.6199 210.17 39.7093 212.3 41.1451C213.092 41.6897 213.612 42.3581 213.859 43.1504C214.156 43.9426 214.231 44.7347 214.082 45.527C213.933 46.2697 213.586 46.9134 213.042 47.458C212.498 48.0026 211.804 48.3245 210.963 48.4235C210.17 48.5225 209.254 48.275 208.215 47.6808C206.382 46.641 204.525 45.8983 202.644 45.4527C200.764 45.0071 198.732 44.7843 196.554 44.7843C194.276 44.7843 192.321 45.1061 190.687 45.7498C189.053 46.3935 187.791 47.3095 186.899 48.4978C186.058 49.6365 185.637 50.9982 185.637 52.5826C185.637 54.3651 186.231 55.8009 187.419 56.8902C188.608 57.93 190.637 58.747 193.509 59.3411L201.605 61.0493C206.507 62.0891 210.146 63.723 212.522 65.9511C214.949 68.1792 216.162 71.15 216.162 74.8635C216.162 77.2401 215.666 79.3939 214.676 81.3249C213.735 83.2559 212.35 84.9145 210.517 86.301C208.735 87.6874 206.581 88.7519 204.056 89.4946C201.53 90.2373 198.684 90.6086 195.515 90.6086ZM239.991 90.6086C236.229 90.6086 232.961 89.8412 230.187 88.3063C227.415 86.7713 225.261 84.5928 223.726 81.7705C222.192 78.8987 221.424 75.5319 221.424 71.6699C221.424 68.7487 221.845 66.1492 222.686 63.8716C223.577 61.5445 224.84 59.5639 226.474 57.93C228.108 56.2465 230.065 54.9839 232.341 54.1423C234.619 53.251 237.169 52.8054 239.991 52.8054C243.755 52.8054 247.022 53.5728 249.795 55.1078C252.568 56.6427 254.722 58.8212 256.256 61.6435C257.791 64.4657 258.558 67.8079 258.558 71.6699C258.558 74.5911 258.113 77.2154 257.221 79.5424C256.38 81.8695 255.142 83.8748 253.508 85.5583C251.874 87.1922 249.919 88.4548 247.641 89.346C245.364 90.1877 242.813 90.6086 239.991 90.6086ZM239.991 83.553C241.824 83.553 243.433 83.1074 244.818 82.2161C246.205 81.3249 247.269 80.0128 248.012 78.2799C248.805 76.4974 249.2 74.294 249.2 71.6699C249.2 67.7089 248.359 64.7628 246.675 62.8318C244.993 60.8512 242.765 59.861 239.991 59.861C238.16 59.861 236.55 60.3066 235.163 61.1979C233.778 62.0395 232.688 63.3517 231.896 65.1341C231.153 66.867 230.782 69.0457 230.782 71.6699C230.782 75.5815 231.624 78.5522 233.307 80.5822C234.991 82.5628 237.219 83.553 239.991 83.553ZM272.989 90.4601C271.504 90.4601 270.339 90.064 269.498 89.2718C268.705 88.4301 268.31 87.2418 268.31 85.7068V60.5294H264.894C263.705 60.5294 262.79 60.2324 262.146 59.6382C261.501 58.9945 261.18 58.1281 261.18 57.0388C261.18 55.9 261.501 55.0335 262.146 54.4393C262.79 53.8452 263.705 53.5481 264.894 53.5481H270.984L268.31 55.999V53.4738C268.31 48.3739 269.597 44.5615 272.172 42.0363C274.747 39.4616 278.461 37.9515 283.312 37.5059L285.838 37.2831C286.827 37.1841 287.62 37.3573 288.214 37.803C288.808 38.199 289.204 38.7438 289.402 39.4369C289.601 40.0806 289.625 40.749 289.477 41.4422C289.328 42.1353 289.007 42.7543 288.511 43.2989C288.066 43.7941 287.471 44.0663 286.729 44.1159L285.689 44.1901C282.867 44.3883 280.811 45.1061 279.525 46.344C278.238 47.5818 277.594 49.4633 277.594 51.9884V54.7364L276.405 53.5481H283.907C285.095 53.5481 286.01 53.8452 286.654 54.4393C287.299 55.0335 287.62 55.9 287.62 57.0388C287.62 58.1281 287.299 58.9945 286.654 59.6382C286.01 60.2324 285.095 60.5294 283.907 60.5294H277.594V85.7068C277.594 88.8757 276.058 90.4601 272.989 90.4601ZM307.519 90.6086C304.299 90.6086 301.601 90.064 299.423 88.9747C297.294 87.8853 295.71 86.301 294.67 84.2214C293.63 82.0923 293.11 79.4682 293.11 76.3489V60.5294H289.248C288.06 60.5294 287.143 60.2324 286.5 59.6382C285.856 58.9945 285.533 58.1281 285.533 57.0388C285.533 55.9 285.856 55.0335 286.5 54.4393C287.143 53.8452 288.06 53.5481 289.248 53.5481H293.11V46.7896C293.11 45.2546 293.506 44.0912 294.299 43.2989C295.14 42.5066 296.304 42.1106 297.789 42.1106C299.275 42.1106 300.413 42.5066 301.206 43.2989C301.997 44.0912 302.394 45.2546 302.394 46.7896V53.5481H310.267C311.455 53.5481 312.37 53.8452 313.015 54.4393C313.657 55.0335 313.98 55.9 313.98 57.0388C313.98 58.1281 313.657 58.9945 313.015 59.6382C312.37 60.2324 311.455 60.5294 310.267 60.5294H302.394V75.829C302.394 78.2056 302.914 79.9881 303.954 81.1764C304.994 82.3647 306.676 82.9588 309.004 82.9588C309.845 82.9588 310.588 82.8846 311.232 82.736C311.875 82.5875 312.445 82.4885 312.94 82.439C313.535 82.3894 314.028 82.5875 314.426 83.0331C314.821 83.4292 315.02 84.271 315.02 85.5583C315.02 86.5485 314.845 87.4397 314.5 88.232C314.203 88.9747 313.633 89.4946 312.792 89.7916C312.148 89.9898 311.306 90.163 310.267 90.3115C309.227 90.5096 308.31 90.6086 307.519 90.6086ZM334.003 90.4601C332.765 90.4601 331.701 90.163 330.81 89.5688C329.918 88.9251 329.2 87.9349 328.656 86.5981L317.887 59.1183C317.441 57.93 317.293 56.8902 317.441 55.999C317.638 55.0582 318.11 54.3155 318.852 53.7709C319.595 53.2263 320.585 52.9539 321.823 52.9539C322.911 52.9539 323.802 53.2263 324.497 53.7709C325.189 54.2661 325.783 55.2316 326.279 56.6674L335.266 81.3992H333.558L342.841 56.0733C343.237 54.9839 343.757 54.1918 344.401 53.6966C345.093 53.2015 345.985 52.9539 347.075 52.9539C348.163 52.9539 349.054 53.2263 349.748 53.7709C350.441 54.2661 350.961 55.0335 351.308 56.0733L360.443 81.3992H358.883L367.944 56.4446C368.438 55.1078 369.058 54.1918 369.801 53.6966C370.592 53.2015 371.459 52.9539 372.401 52.9539C373.589 52.9539 374.504 53.251 375.149 53.8452C375.791 54.4393 376.162 55.2067 376.263 56.1475C376.361 57.0388 376.188 58.029 375.743 59.1183L365.048 86.5981C364.552 87.8853 363.834 88.8508 362.894 89.4946C362.003 90.1383 360.937 90.4601 359.7 90.4601C358.462 90.4601 357.372 90.1383 356.433 89.4946C355.541 88.8508 354.847 87.8853 354.353 86.5981L344.624 60.8265H348.857L339.351 86.5238C338.855 87.8606 338.162 88.8508 337.271 89.4946C336.38 90.1383 335.29 90.4601 334.003 90.4601ZM394.516 90.6086C391.891 90.6086 389.54 90.1134 387.461 89.1232C385.429 88.0834 383.821 86.697 382.631 84.9641C381.493 83.2312 380.925 81.2753 380.925 79.0968C380.925 76.4231 381.617 74.3189 383.004 72.7839C384.39 71.1996 386.644 70.0606 389.763 69.3675C392.882 68.6744 397.065 68.3277 402.314 68.3277H406.028V73.6751H402.389C399.318 73.6751 396.867 73.8237 395.036 74.1208C393.203 74.4178 391.891 74.9377 391.1 75.6804C390.357 76.3736 389.986 77.3639 389.986 78.6512C389.986 80.2851 390.554 81.622 391.694 82.6618C392.832 83.7015 394.416 84.2214 396.447 84.2214C398.081 84.2214 399.516 83.8501 400.755 83.1074C402.042 82.3151 403.057 81.2506 403.8 79.9138C404.543 78.5769 404.914 77.042 404.914 75.3091V66.7681C404.914 64.2925 404.368 62.51 403.28 61.4207C402.19 60.3313 400.357 59.7867 397.784 59.7867C396.347 59.7867 394.787 59.96 393.105 60.3066C391.471 60.6533 389.737 61.2474 387.906 62.0891C386.965 62.5347 386.124 62.6586 385.381 62.4604C384.687 62.2623 384.143 61.8663 383.747 61.2721C383.35 60.6284 383.153 59.9353 383.153 59.1926C383.153 58.4499 383.35 57.7319 383.747 57.0388C384.143 56.2961 384.811 55.7515 385.752 55.4048C388.029 54.464 390.209 53.7956 392.288 53.3996C394.416 53.0035 396.347 52.8054 398.081 52.8054C401.646 52.8054 404.567 53.35 406.845 54.4393C409.171 55.5287 410.904 57.1873 412.044 59.4154C413.182 61.5939 413.752 64.4162 413.752 67.8821V85.7068C413.752 87.2418 413.381 88.4301 412.638 89.2718C411.895 90.064 410.829 90.4601 409.444 90.4601C408.057 90.4601 406.967 90.064 406.177 89.2718C405.434 88.4301 405.062 87.2418 405.062 85.7068V82.1419H405.657C405.309 83.8748 404.617 85.385 403.577 86.6723C402.586 87.9102 401.323 88.8757 399.789 89.5688C398.254 90.262 396.495 90.6086 394.516 90.6086ZM427.928 90.4601C426.393 90.4601 425.204 90.064 424.363 89.2718C423.57 88.4301 423.175 87.2418 423.175 85.7068V57.6329C423.175 56.098 423.57 54.9345 424.363 54.1423C425.154 53.35 426.268 52.9539 427.705 52.9539C429.141 52.9539 430.255 53.35 431.048 54.1423C431.839 54.9345 432.236 56.098 432.236 57.6329V62.3119H431.493C432.186 59.3411 433.547 57.0883 435.578 55.5534C437.607 54.0184 440.305 53.1025 443.673 52.8054C444.713 52.7064 445.53 52.9786 446.124 53.6224C446.767 54.2165 447.138 55.1573 447.238 56.4446C447.337 57.6825 447.04 58.6974 446.347 59.4897C445.703 60.2324 444.713 60.678 443.376 60.8265L441.742 60.9751C438.721 61.2721 436.443 62.2129 434.91 63.7973C433.374 65.3323 432.607 67.5108 432.607 70.333V85.7068C432.607 87.2418 432.21 88.4301 431.419 89.2718C430.626 90.064 429.462 90.4601 427.928 90.4601ZM469.577 90.6086C465.468 90.6086 461.927 89.8412 458.956 88.3063C455.985 86.7713 453.683 84.5928 452.049 81.7705C450.465 78.9483 449.672 75.6062 449.672 71.7441C449.672 67.9811 450.439 64.6885 451.975 61.8663C453.559 59.0441 455.712 56.8407 458.436 55.2563C461.208 53.6224 464.354 52.8054 467.869 52.8054C470.444 52.8054 472.746 53.2263 474.776 54.068C476.855 54.9097 478.613 56.1228 480.049 57.7072C481.534 59.2915 482.648 61.2226 483.391 63.5002C484.184 65.7283 484.579 68.2535 484.579 71.0757C484.579 71.9669 484.258 72.6601 483.614 73.1553C483.019 73.6009 482.152 73.8237 481.014 73.8237H457.174V68.4763H478.043L476.855 69.5903C476.855 67.3127 476.508 65.4065 475.815 63.8716C475.171 62.3366 474.206 61.1732 472.919 60.3809C471.68 59.5392 470.121 59.1183 468.24 59.1183C466.16 59.1183 464.378 59.6135 462.892 60.6037C461.457 61.5445 460.343 62.9061 459.55 64.6885C458.808 66.4214 458.436 68.501 458.436 70.9272V71.4471C458.436 75.5072 459.378 78.5522 461.259 80.5822C463.19 82.5628 466.012 83.553 469.725 83.553C471.012 83.553 472.449 83.4045 474.033 83.1074C475.667 82.7607 477.202 82.1915 478.638 81.3992C479.677 80.805 480.593 80.5575 481.386 80.6565C482.178 80.7061 482.797 80.9783 483.242 81.4735C483.738 81.9686 484.035 82.5875 484.134 83.3302C484.232 84.0233 484.083 84.7413 483.688 85.484C483.341 86.2267 482.722 86.8704 481.831 87.415C480.099 88.5044 478.094 89.3213 475.815 89.8659C473.587 90.3611 471.508 90.6086 469.577 90.6086Z" fill="#4B5157"/>
<path d="M182.983 134.819C181.661 134.819 180.488 134.529 179.467 133.949C178.446 133.346 177.692 132.522 177.204 131.477V133.288C177.204 134.262 176.74 134.75 175.812 134.75C174.883 134.75 174.419 134.262 174.419 133.288V111.146C174.419 110.194 174.883 109.719 175.812 109.719C176.763 109.719 177.239 110.194 177.239 111.146V120.511C177.726 119.513 178.481 118.724 179.502 118.144C180.523 117.563 181.684 117.273 182.983 117.273C184.492 117.273 185.804 117.633 186.918 118.353C188.054 119.049 188.925 120.058 189.528 121.381C190.154 122.681 190.468 124.236 190.468 126.046C190.468 127.833 190.154 129.388 189.528 130.711C188.925 132.011 188.054 133.021 186.918 133.74C185.804 134.46 184.492 134.819 182.983 134.819ZM182.392 132.557C183.97 132.557 185.235 132 186.186 130.886C187.137 129.748 187.614 128.135 187.614 126.046C187.614 123.934 187.137 122.321 186.186 121.207C185.235 120.093 183.97 119.536 182.392 119.536C180.813 119.536 179.549 120.093 178.597 121.207C177.645 122.321 177.169 123.934 177.169 126.046C177.169 128.135 177.645 129.748 178.597 130.886C179.549 132 180.813 132.557 182.392 132.557ZM201.72 141.016C201.185 141.016 200.825 140.807 200.639 140.39C200.454 139.995 200.467 139.543 200.674 139.032L202.799 134.228L196.393 119.327C196.161 118.794 196.15 118.329 196.358 117.935C196.59 117.54 197.019 117.343 197.646 117.343C198.296 117.343 198.771 117.714 199.074 118.457L204.33 131.303L209.622 118.457C209.808 118.039 210.005 117.749 210.214 117.587C210.422 117.424 210.725 117.343 211.119 117.343C211.653 117.343 212.012 117.54 212.197 117.935C212.383 118.329 212.372 118.782 212.164 119.292L203.252 139.902C203.066 140.32 202.856 140.61 202.624 140.773C202.416 140.935 202.113 141.016 201.72 141.016ZM233.73 134.506C232.687 134.506 232.163 133.984 232.163 132.94V111.529C232.163 110.485 232.687 109.962 233.73 109.962H240.45C244.417 109.962 247.481 111.018 249.64 113.131C251.798 115.219 252.879 118.248 252.879 122.217C252.879 126.186 251.798 129.226 249.64 131.338C247.481 133.45 244.417 134.506 240.45 134.506H233.73ZM235.019 132.069H240.24C246.645 132.069 249.848 128.785 249.848 122.217C249.848 115.672 246.645 112.399 240.24 112.399H235.019V132.069ZM268.724 134.819C266.056 134.819 263.943 134.042 262.389 132.487C260.833 130.909 260.057 128.774 260.057 126.081C260.057 124.341 260.404 122.809 261.1 121.486C261.796 120.14 262.749 119.107 263.956 118.387C265.185 117.645 266.602 117.273 268.202 117.273C270.501 117.273 272.298 118.016 273.598 119.501C274.898 120.964 275.547 122.983 275.547 125.559C275.547 126.278 275.143 126.638 274.329 126.638H262.807C262.899 128.565 263.456 130.038 264.478 131.06C265.499 132.058 266.914 132.557 268.724 132.557C269.491 132.557 270.269 132.464 271.058 132.278C271.847 132.069 272.612 131.709 273.355 131.199C273.889 130.851 274.329 130.781 274.679 130.99C275.05 131.199 275.236 131.524 275.236 131.965C275.258 132.382 275.026 132.754 274.539 133.079C273.772 133.636 272.855 134.065 271.788 134.367C270.744 134.669 269.723 134.819 268.724 134.819ZM268.273 119.362C266.67 119.362 265.406 119.861 264.478 120.859C263.549 121.857 263.003 123.168 262.842 124.793H273.111C273.041 123.076 272.59 121.741 271.754 120.79C270.941 119.838 269.78 119.362 268.273 119.362ZM289.208 134.75C288.396 134.75 287.793 134.297 287.397 133.392L281.374 119.327C281.142 118.794 281.131 118.329 281.341 117.935C281.548 117.54 281.966 117.343 282.594 117.343C283.244 117.343 283.719 117.714 284.02 118.457L289.278 131.303L294.603 118.457C294.767 118.039 294.952 117.749 295.16 117.587C295.37 117.424 295.671 117.343 296.066 117.343C296.599 117.343 296.959 117.54 297.145 117.935C297.331 118.329 297.32 118.782 297.11 119.292L291.018 133.392C290.646 134.297 290.043 134.75 289.208 134.75ZM306.115 134.75C305.164 134.75 304.687 134.251 304.687 133.253V111.216C304.687 110.218 305.164 109.719 306.115 109.719C307.067 109.719 307.543 110.218 307.543 111.216V133.253C307.543 134.251 307.067 134.75 306.115 134.75ZM324.562 134.75C323.609 134.75 323.134 134.251 323.134 133.253V112.434H315.3C314.418 112.434 313.978 112.016 313.978 111.181C313.978 110.369 314.418 109.962 315.3 109.962H333.856C334.738 109.962 335.178 110.369 335.178 111.181C335.178 112.016 334.738 112.434 333.856 112.434H326.023V133.253C326.023 134.251 325.536 134.75 324.562 134.75Z" fill="#939699"/>
</g>
</svg>
